<svg xmlns="http://www.w3.org/2000/svg" width="30" height="12" fill="none"><mask id="a" width="30" height="12" x="0" y="0" maskUnits="userSpaceOnUse" style="mask-type:luminance"><path fill="#fff" d="M30 0H0v12h30z"/></mask><g mask="url(#a)"><mask id="b" width="31" height="12" x="-1" y="0" maskUnits="userSpaceOnUse" style="mask-type:luminance"><path fill="#fff" d="M30 0H-.007v12h30.009V0z"/></mask><g fill="#475664" mask="url(#b)"><path d="M20.614 8.492c.03.87-.284 1.718-.875 2.362a3.4 3.4 0 0 1-1.493.95 4.1 4.1 0 0 1-1.564.188c-.68-.048-1.312-.241-1.878-.625a3.3 3.3 0 0 1-1.09-1.227 3.2 3.2 0 0 1-.31-.87 4 4 0 0 1-.013-1.485 3.28 3.28 0 0 1 1.047-1.883 3.5 3.5 0 0 1 1.596-.818 4.1 4.1 0 0 1 1.43-.078 3.75 3.75 0 0 1 1.677.602c.326.218.61.494.837.812a3.3 3.3 0 0 1 .635 1.816c.004.086 0 .17 0 .256zm-2.057.002a2 2 0 0 0-.179-.873 1.37 1.37 0 0 0-.55-.612c-.464-.267-.951-.3-1.453-.121a1.37 1.37 0 0 0-.662.498c-.167.237-.27.513-.3.8-.045.404-.015.798.162 1.172.134.295.368.534.661.675.37.182.796.22 1.193.106.454-.122.78-.399.97-.828.116-.262.156-.538.158-.817M12.238 0h-2.183v11.99h2.183z"/><path d="m21.007 4.211 1.023-1.02-1.023-1.02H7.992v2.04zM6.23 0H2.91S.023 11.866-.008 11.998c0-.006 2.422.007 2.416 0l.447-2.094h2.741L6.005 12h3.124l-2.9-12zM3.287 7.92c.342-1.66.75-3.302.959-4.982h.05c.195 1.677.57 3.32.888 4.981H3.288zM27.097 0H23.78l-2.92 11.998c0-.006 2.423.007 2.416 0l.448-2.094h2.74L26.872 12h3.125zm-2.942 7.92c.342-1.66.752-3.302.959-4.982h.05c.196 1.677.57 3.32.888 4.981h-1.897z"/></g></g></svg>