<svg xmlns="http://www.w3.org/2000/svg" width="41" height="40" fill="none"><path fill="#E42646" d="M1 16c0-3.785.001-6.574.288-8.712.286-2.123.846-3.528 1.909-4.591S5.665 1.074 7.788.788C9.926.501 12.715.5 16.5.5h8c3.785 0 6.574.001 8.712.288 2.123.286 3.528.846 4.591 1.909s1.623 2.468 1.909 4.591C39.999 9.426 40 12.215 40 16v8c0 3.785-.001 6.574-.288 8.712-.286 2.123-.846 3.528-1.909 4.591s-2.468 1.623-4.591 1.909c-2.138.287-4.927.288-8.712.288h-8c-3.785 0-6.574-.001-8.712-.288-2.123-.286-3.528-.846-4.591-1.909s-1.623-2.468-1.909-4.591C1.001 30.574 1 27.785 1 24z"/><path stroke="#EAEEF0" d="M1 16c0-3.785.001-6.574.288-8.712.286-2.123.846-3.528 1.909-4.591S5.665 1.074 7.788.788C9.926.501 12.715.5 16.5.5h8c3.785 0 6.574.001 8.712.288 2.123.286 3.528.846 4.591 1.909s1.623 2.468 1.909 4.591C39.999 9.426 40 12.215 40 16v8c0 3.785-.001 6.574-.288 8.712-.286 2.123-.846 3.528-1.909 4.591s-2.468 1.623-4.591 1.909c-2.138.287-4.927.288-8.712.288h-8c-3.785 0-6.574-.001-8.712-.288-2.123-.286-3.528-.846-4.591-1.909s-1.623-2.468-1.909-4.591C1.001 30.574 1 27.785 1 24z"/><g clip-path="url(#a)"><mask id="b" width="27" height="12" x="7" y="14" maskUnits="userSpaceOnUse" style="mask-type:luminance"><path fill="#fff" d="M33.846 14.648H7.18v10.703h26.666z"/></mask><g mask="url(#b)"><mask id="c" width="27" height="12" x="7" y="14" maskUnits="userSpaceOnUse" style="mask-type:luminance"><path fill="#fff" d="M33.83 14.656H7.157V25.36h26.675V14.656z"/></mask><g fill="#fff" mask="url(#c)"><path d="M25.484 22.23a2.97 2.97 0 0 1-.778 2.106 3 3 0 0 1-1.327.847 3.6 3.6 0 0 1-1.39.168 3.33 3.33 0 0 1-1.67-.557 2.95 2.95 0 0 1-.968-1.095 2.8 2.8 0 0 1-.276-.777 3.6 3.6 0 0 1-.011-1.323 2.93 2.93 0 0 1 .93-1.68 3.1 3.1 0 0 1 1.419-.73c.416-.096.847-.12 1.271-.069a3.3 3.3 0 0 1 1.49.537c.29.195.543.44.745.724a2.96 2.96 0 0 1 .564 1.62c.004.076 0 .152 0 .228zm-1.829 0c0-.271-.041-.532-.158-.778a1.22 1.22 0 0 0-.489-.545 1.48 1.48 0 0 0-1.292-.109c-.238.084-.443.24-.588.445-.149.211-.24.457-.266.714-.04.36-.014.711.143 1.045.119.263.327.476.588.601.329.163.707.197 1.06.095q.607-.164.863-.739c.103-.233.138-.479.14-.728zm-5.613-7.566h-1.94v10.694h1.94z"/><path d="m25.834 18.413.91-.91-.91-.91H14.266v1.82zM12.7 14.656H9.75L7.157 25.357c0-.005 2.153.006 2.148 0L9.7 23.49h2.437l.363 1.868h2.777zm-2.614 7.064c.304-1.48.667-2.945.852-4.443h.045c.173 1.495.506 2.961.789 4.443h-1.687zm21.162-7.064h-2.95l-2.595 10.701c0-.005 2.153.006 2.148 0l.397-1.867h2.436l.364 1.868h2.777zm-2.616 7.064c.304-1.48.668-2.945.853-4.443h.044c.174 1.495.507 2.961.79 4.443z"/></g></g></g><defs><clipPath id="a"><path fill="#fff" d="M7.164 14.648h26.667v10.703H7.164z"/></clipPath></defs></svg>