<svg xmlns="http://www.w3.org/2000/svg" width="32" height="14" fill="none"><g clip-path="url(#a)"><mask id="b" width="32" height="14" x="0" y="0" maskUnits="userSpaceOnUse" style="mask-type:luminance"><path fill="#fff" d="M31.19.598H.79v12.8h30.4z"/></mask><g mask="url(#b)"><mask id="c" width="32" height="14" x="0" y="0" maskUnits="userSpaceOnUse" style="mask-type:luminance"><path fill="#fff" d="M31.198.594H.789v12.8h30.409z"/></mask><g fill="#E42646" mask="url(#c)"><path d="M21.68 9.648a3.66 3.66 0 0 1-.887 2.52 3.43 3.43 0 0 1-1.513 1.013 3.9 3.9 0 0 1-1.585.201c-.688-.051-1.33-.258-1.903-.667a3.5 3.5 0 0 1-1.104-1.308 3.5 3.5 0 0 1-.315-.93 4.5 4.5 0 0 1-.012-1.583 3.55 3.55 0 0 1 1.06-2.009 3.5 3.5 0 0 1 1.618-.872 4 4 0 0 1 1.45-.083c.613.076 1.184.28 1.698.642.33.233.618.527.848.866.227.326.398.69.507 1.077q.117.422.137.86c.004.092 0 .183 0 .273m-2.085.002a2.2 2.2 0 0 0-.18-.931 1.44 1.44 0 0 0-.558-.652c-.47-.286-.964-.32-1.473-.13-.27.1-.505.286-.67.532-.17.253-.275.547-.304.854-.046.43-.015.85.163 1.25.136.314.373.568.67.719a1.6 1.6 0 0 0 1.21.113q.692-.196.983-.883c.117-.28.157-.574.159-.872M13.196.594h-2.212v12.789h2.212z"/><path d="m22.086 5.082 1.037-1.088-1.037-1.088H8.898v2.176zM7.11.594H3.746L.789 13.392c0-.007 2.454.007 2.448 0l.453-2.234h2.778l.414 2.234h3.165zM4.127 9.04c.347-1.77.762-3.521.972-5.313h.051c.198 1.788.577 3.542.9 5.313zM28.258.594h-3.362l-2.959 12.798c0-.007 2.455.007 2.449 0l.453-2.234h2.777l.414 2.234h3.166zM25.277 9.04c.346-1.77.761-3.521.971-5.313h.051c.199 1.788.578 3.542.9 5.313z"/></g></g><path fill="#E42646" d="M29.705 1.685V.884h.397q.066 0 .128.03.06.03.1.088.039.059.039.145a.26.26 0 0 1-.04.146.26.26 0 0 1-.105.091.3.3 0 0 1-.132.032h-.277V1.27h.229q.042 0 .078-.031.036-.032.036-.093 0-.066-.036-.092a.13.13 0 0 0-.075-.026h-.144v.656zm.503-.372.189.372h-.217L30 1.313zm-.191.85a.85.85 0 0 1-.615-.254.87.87 0 0 1-.254-.615.85.85 0 0 1 .254-.614.87.87 0 0 1 .615-.254.85.85 0 0 1 .614.254.87.87 0 0 1 .254.614.85.85 0 0 1-.254.615.87.87 0 0 1-.614.254m0-.223a.6.6 0 0 0 .324-.087.66.66 0 0 0 .322-.559.653.653 0 0 0-.321-.56.6.6 0 0 0-.325-.086.63.63 0 0 0-.326.087.66.66 0 0 0-.234.235.6.6 0 0 0-.087.324q0 .178.087.325a.7.7 0 0 0 .234.234.63.63 0 0 0 .326.087"/></g><defs><clipPath id="a"><path fill="#fff" d="M.797.602h30.4v12.8H.797z"/></clipPath></defs></svg>