<svg xmlns="http://www.w3.org/2000/svg" width="17" height="10" fill="none"><g fill-rule="evenodd" clip-path="url(#a)" clip-rule="evenodd"><path fill="#FF5F00" d="M5.887 8.93h4.358V1.07H5.887z"/><path fill="#EB001B" d="M6.16 5c0-1.596.747-3.018 1.907-3.93A4.96 4.96 0 0 0 4.982 0C2.232 0 0 2.237 0 5s2.232 5 4.982 5c1.16 0 2.232-.404 3.085-1.07A4.99 4.99 0 0 1 6.16 5"/><path fill="#F79E1B" d="M15.975 8.096v-.192h-.053l-.061.131-.062-.131h-.053v.192h.036v-.149l.052.123h.036l.052-.123v.15zm-.316 0V7.94h.061v-.035h-.167v.035h.062v.157zM16.133 5c0 2.763-2.232 5-4.982 5a5 5 0 0 1-3.085-1.07A4.99 4.99 0 0 0 9.973 5a4.99 4.99 0 0 0-1.907-3.93A4.98 4.98 0 0 1 11.151 0c2.75 0 4.982 2.237 4.982 5"/></g><defs><clipPath id="a"><path fill="#fff" d="M0 0h16.133v10H0z"/></clipPath></defs></svg>