<svg xmlns="http://www.w3.org/2000/svg" width="17" height="10" viewBox="0 0 17 10" fill="none">
  <g clip-path="url(#clip0_6570_27551)">
    <path fill-rule="evenodd" clip-rule="evenodd" d="M5.88672 8.92996H10.2452V1.07031H5.88672V8.92996Z" fill="#FF5F00"/>
    <path fill-rule="evenodd" clip-rule="evenodd" d="M6.15984 5C6.15984 3.40351 6.90675 1.98246 8.06667 1.07018C7.22309 0.403509 6.15105 0 4.98235 0C2.23195 0 0 2.23684 0 5C0 7.76316 2.23195 10 4.98235 10C6.14227 10 7.21431 9.59649 8.06667 8.92982C6.90675 8.01754 6.15984 6.59649 6.15984 5Z" fill="#EB001B"/>
    <path fill-rule="evenodd" clip-rule="evenodd" d="M15.9749 8.09649V7.90351H15.9222L15.8607 8.03509L15.7992 7.90351H15.7464V8.09649H15.7816V7.94737L15.8343 8.07018H15.8695L15.9222 7.94737V8.09649H15.9749ZM15.6586 8.09649V7.9386H15.7201V7.90351H15.5531V7.9386H15.6146V8.09649H15.6586ZM16.1331 5C16.1331 7.76316 13.9011 10 11.1507 10C9.99081 10 8.91877 9.59649 8.06641 8.92982C9.22632 8.01754 9.97323 6.59649 9.97323 5C9.97323 3.40351 9.22632 1.98246 8.06641 1.07018C8.91877 0.403509 9.98202 0 11.1507 0C13.9011 0 16.1331 2.23684 16.1331 5Z" fill="#F79E1B"/>
  </g>
  <defs>
    <clipPath id="clip0_6570_27551">
      <rect width="16.1333" height="10" fill="white"/>
    </clipPath>
  </defs>
</svg>