<svg xmlns="http://www.w3.org/2000/svg" width="22" height="9" fill="none"><path fill="#3C4043" d="M10.269 4.199v2.545H9.46V.459h2.141q.816 0 1.384.543.58.542.58 1.325 0 .8-.58 1.333-.562.536-1.384.535H10.27zm0-2.966v2.192h1.35q.482-.002.8-.324a1.06 1.06 0 0 0 .323-.77c0-.29-.11-.547-.324-.761a1.05 1.05 0 0 0-.799-.333h-1.35zM15.677 2.3q.896 0 1.413.48.518.48.518 1.313v2.65h-.77v-.597h-.034q-.5.737-1.333.736-.712 0-1.19-.42a1.34 1.34 0 0 1-.48-1.052q0-.67.505-1.06.505-.397 1.346-.396.72 0 1.182.265v-.185a.92.92 0 0 0-.332-.715 1.14 1.14 0 0 0-.783-.295q-.676 0-1.069.572l-.71-.445q.587-.851 1.737-.85m-1.043 3.122q-.001.316.269.526.266.21.627.21.51 0 .908-.378.399-.378.4-.888-.377-.298-1.052-.299-.492.001-.82.236-.333.246-.332.593m7.368-2.982L19.31 8.634h-.833l1.001-2.167-1.775-4.026h.88L19.86 5.53h.017l1.245-3.088z"/><path fill="#4285F4" d="M7.054 3.685q0-.394-.067-.757H3.602v1.388h1.95a1.67 1.67 0 0 1-.724 1.119v.9h1.16c.678-.627 1.066-1.554 1.066-2.65"/><path fill="#34A853" d="M4.83 5.437c-.324.218-.74.345-1.227.345-.94 0-1.737-.633-2.023-1.487H.383v.929a3.6 3.6 0 0 0 3.22 1.984c.974 0 1.792-.32 2.387-.87z"/><path fill="#FABB05" d="M1.468 3.603c0-.24.04-.472.112-.69v-.929H.383A3.6 3.6 0 0 0 0 3.603c0 .582.138 1.131.383 1.618l1.197-.929a2.2 2.2 0 0 1-.112-.69"/><path fill="#E94235" d="M3.603 1.426c.532 0 1.008.183 1.383.54L6.015.94A3.46 3.46 0 0 0 3.603 0a3.6 3.6 0 0 0-3.22 1.985l1.197.929c.286-.854 1.083-1.488 2.023-1.488"/></svg>