<svg xmlns="http://www.w3.org/2000/svg" width="21" height="9" fill="none"><path fill="#000" d="M3.951 1.144c.247-.308.414-.721.37-1.144-.36.018-.8.238-1.055.546-.229.264-.431.695-.379 1.1.405.035.81-.203 1.064-.502M4.317 1.725c-.587-.035-1.087.333-1.368.333-.28 0-.71-.315-1.175-.307a1.73 1.73 0 0 0-1.473.895C-.33 3.734.134 5.348.748 6.235c.299.438.658.921 1.131.904.448-.018.623-.29 1.167-.29.543 0 .701.29 1.175.28.49-.008.798-.438 1.096-.877.342-.5.482-.982.491-1.009-.009-.008-.947-.368-.956-1.448-.009-.903.737-1.333.772-1.36-.421-.622-1.079-.692-1.307-.71M9.436.502c1.278 0 2.167.88 2.167 2.162 0 1.286-.908 2.171-2.199 2.171H7.99v2.249H6.97V.502zM7.99 3.978h1.173c.89 0 1.395-.48 1.395-1.31s-.506-1.304-1.39-1.304H7.99zM11.867 5.724c0-.839.643-1.354 1.784-1.418l1.313-.078v-.37c0-.533-.36-.852-.962-.852-.57 0-.926.274-1.013.702h-.93c.055-.866.793-1.505 1.98-1.505 1.162 0 1.906.616 1.906 1.578v3.307H15V6.3h-.023c-.278.534-.885.871-1.514.871-.94 0-1.597-.584-1.597-1.446m3.097-.433v-.378l-1.181.073c-.588.04-.921.3-.921.711 0 .42.346.693.875.693.689 0 1.227-.474 1.227-1.099M16.838 8.853v-.798c.072.018.237.018.319.018.456 0 .702-.192.853-.684 0-.01.086-.292.086-.297L16.363 2.29h1.067l1.214 3.905h.018l1.213-3.905h1.04l-1.797 5.05c-.41 1.163-.885 1.537-1.879 1.537-.082 0-.329-.01-.401-.023"/></svg>