<svg xmlns="http://www.w3.org/2000/svg" width="36" height="36" viewBox="0 0 36 36" fill="none">
  <path d="M18 0.5C8.35221 0.5 0.5 8.35221 0.5 18C0.5 27.6478 8.35221 35.5 18 35.5C27.6478 35.5 35.5 27.6478 35.5 18C35.5 8.35221 27.6478 0.5 18 0.5ZM16.6875 9.6875C16.6875 8.96289 17.2754 8.375 18 8.375C18.7246 8.375 19.3125 8.96289 19.3125 9.6875V20.1875C19.3125 20.9121 18.7246 21.5 18 21.5C17.2754 21.5 16.6875 20.9121 16.6875 20.1875V9.6875ZM18 27.625C17.0339 27.625 16.25 26.8411 16.25 25.875C16.25 24.9089 17.0339 24.125 18 24.125C18.9661 24.125 19.75 24.9089 19.75 25.875C19.75 26.8411 18.9661 27.625 18 27.625Z" fill="#E97244"/>
</svg>