<svg xmlns="http://www.w3.org/2000/svg" width="16" height="20" fill="none"><path fill="#F2F5F6" d="M7.822.836a.6.6 0 0 0-.426.157S4.336 3.688.674 3.688a.61.61 0 0 0-.611.611v4.995c0 2.72 1.258 7.197 7.502 9.826a.6.6 0 0 0 .476 0c6.244-2.629 7.502-7.106 7.502-9.826V4.299a.61.61 0 0 0-.61-.611C11.27 3.688 8.21.993 8.21.993a.6.6 0 0 0-.388-.157m-.02 1.396c.841.677 3.305 2.409 6.52 2.627v4.435c0 2.338-.9 6.113-6.52 8.583-5.618-2.47-6.517-6.245-6.517-8.583V4.859c3.214-.218 5.678-1.95 6.518-2.627m3.044 5.116a.63.63 0 0 0-.42.185l-3.642 3.643L5.18 9.57a.62.62 0 0 0-.596-.168.61.61 0 0 0-.437.437.62.62 0 0 0 .168.596l2.037 2.037c.24.238.626.238.865 0l4.074-4.074a.614.614 0 0 0-.445-1.05"/></svg>