<svg xmlns="http://www.w3.org/2000/svg" width="16" height="16" fill="none"><path fill="#1E5B47" d="M8.013.672a.5.5 0 0 0-.349.129s-2.503 2.204-5.5 2.204a.5.5 0 0 0-.5.5v4.087c0 2.226 1.03 5.89 6.139 8.04a.49.49 0 0 0 .389 0c5.11-2.15 6.139-5.814 6.139-8.04V3.505a.5.5 0 0 0-.5-.5c-2.997 0-5.5-2.204-5.5-2.204a.5.5 0 0 0-.318-.129m2.484 5.333a.498.498 0 0 1 .353.855l-3.334 3.333a.5.5 0 0 1-.707 0L5.144 8.526a.503.503 0 0 1 0-.708.503.503 0 0 1 .709 0l1.312 1.314 2.98-2.98a.5.5 0 0 1 .353-.147z"/></svg>