<svg xmlns="http://www.w3.org/2000/svg" width="16" height="16" viewBox="0 0 16 16" fill="none">
  <path d="M13.8038 7.5297L9.13715 2.86304C8.87847 2.60262 8.45486 2.60262 8.19618 2.86304C7.93576 3.12172 7.93576 3.54533 8.19618 3.80401L11.724 7.33352H2.66667C2.29861 7.33352 2 7.63213 2 8.00019C2 8.36825 2.29861 8.66686 2.66667 8.66686H11.724L8.19618 12.1964C7.93576 12.4551 7.93576 12.8787 8.19618 13.1373C8.32639 13.2693 8.49653 13.3335 8.66667 13.3335C8.83681 13.3335 9.00694 13.2693 9.13715 13.1373L13.8038 8.47068C14.0642 8.21199 14.0642 7.78838 13.8038 7.5297Z" fill="white"/>
</svg>