<svg width="16" height="16" viewBox="0 0 16 16" fill="none" xmlns="http://www.w3.org/2000/svg">
<path d="M4.83218 14.6673C4.74952 14.6673 4.66652 14.647 4.59052 14.605C4.39218 14.4953 4.29218 14.266 4.34752 14.046L5.52518 9.33398H3.83218C3.67518 9.33398 3.52752 9.26032 3.43285 9.13498C3.33852 9.00965 3.30818 8.84732 3.35118 8.69665L5.35118 1.69665C5.41285 1.48198 5.60885 1.33398 5.83218 1.33398H10.4988C10.6595 1.33398 10.8105 1.41132 10.9045 1.54165C10.9985 1.67198 11.0242 1.83965 10.9732 1.99198L9.85918 5.33398H12.8322C13.0325 5.33398 13.2135 5.45365 13.2922 5.63798C13.3708 5.82232 13.3318 6.03565 13.1928 6.17998L5.19285 14.5133C5.09618 14.6143 4.96485 14.6673 4.83218 14.6673Z" fill="#2B53B6"/>
</svg>