<svg xmlns="http://www.w3.org/2000/svg" width="16" height="16" fill="none"><path fill="#475664" d="M8.003 1.333A6.674 6.674 0 0 0 1.336 8a6.674 6.674 0 0 0 6.667 6.666A6.674 6.674 0 0 0 14.669 8a6.674 6.674 0 0 0-6.666-6.667m0 1A5.66 5.66 0 0 1 13.669 8a5.66 5.66 0 0 1-5.666 5.666A5.66 5.66 0 0 1 2.336 8a5.66 5.66 0 0 1 5.667-5.667m0 2c-1.1 0-2 .9-2 2V6.5a.5.5 0 1 0 1 0v-.167c0-.567.433-1 1-1 .566 0 1 .433 1 1 0 .78-.205.881-.56 1.161-.178.14-.41.302-.609.572s-.331.648-.331 1.1a.5.5 0 1 0 1 0c0-.281.055-.395.137-.507s.225-.224.422-.38c.395-.31.94-.893.94-1.946 0-1.1-.9-2-2-2m0 6.333a.667.667 0 1 0 0 1.334.667.667 0 0 0 0-1.334"/></svg>