<svg xmlns="http://www.w3.org/2000/svg" width="20" height="22" fill="none"><path fill="#F2F5F6" d="M7.622.46a3.677 3.677 0 0 0-3.666 3.668V5.96H2.352A2.066 2.066 0 0 0 .289 8.023v8.709c0 1.136.926 2.062 2.063 2.062h6.402a6 6 0 0 1-.513-1.375H2.35a.69.69 0 0 1-.687-.687V8.023c0-.38.308-.687.688-.687h10.541c.38 0 .688.308.688.687v2.08a5.8 5.8 0 0 1 1.375.057V8.023a2.066 2.066 0 0 0-2.063-2.062H11.29V4.128A3.677 3.677 0 0 0 7.622.46m0 1.376a2.28 2.28 0 0 1 2.292 2.292V5.96H5.331V4.128a2.28 2.28 0 0 1 2.291-2.292m0 9.167a1.375 1.375 0 1 0 .001 2.75 1.375 1.375 0 0 0 0-2.75m6.417 0a5.043 5.043 0 0 0-5.042 5.041 5.043 5.043 0 1 0 5.042-5.042m2.75 2.75a.46.46 0 0 1 .325.783l-3.667 3.666a.465.465 0 0 1-.65 0l-1.833-1.833a.46.46 0 0 1 .65-.65l1.508 1.512 3.342-3.345a.47.47 0 0 1 .325-.133"/></svg>