<svg xmlns="http://www.w3.org/2000/svg" width="40" height="40" fill="none"><g clip-path="url(#a)"><path fill="#fff" d="M0 0h40v40H0z"/><path fill="url(#b)" d="M9 24.922a1 1 0 0 1 .696-.953l9.514-3.037a1 1 0 0 1 1.304.953V39a1 1 0 0 1-1 1H10a1 1 0 0 1-1-1V24.92z"/><path fill="url(#c)" d="M17.86 10.5a1 1 0 0 1 1.384-.923l10.4 4.333a1 1 0 0 1 .615.923V39a1 1 0 0 1-1 1h-10.4a1 1 0 0 1-1-1V10.5z"/><path fill="#F6F8F9" d="m9.89 26.334 1.772-.506v3.037l-1.771.506v-3.037zm0 5.313 1.772-.506v3.036l-1.771.507v-3.037zm2.657-6.196 1.771-.506v3.037l-1.771.506zm0 5.313 1.771-.506v3.037l-1.771.506zm2.656-6.204 1.772-.505v3.036l-1.772.506v-3.036zm0 5.321 1.772-.506v3.037l-1.772.506V29.88z"/></g><defs><linearGradient id="b" x1="14.757" x2="14.757" y1="20.516" y2="40.001" gradientUnits="userSpaceOnUse"><stop stop-color="#97A6B2"/><stop offset="1" stop-color="#F2F5F6"/></linearGradient><linearGradient id="c" x1="24.059" x2="24.059" y1="9" y2="40" gradientUnits="userSpaceOnUse"><stop stop-color="#97A6B2"/><stop offset="1" stop-color="#F2F5F6"/></linearGradient><clipPath id="a"><path fill="#fff" d="M0 0h40v40H0z"/></clipPath></defs></svg>