<svg xmlns="http://www.w3.org/2000/svg" width="22" height="22" fill="none"><path fill="#6A8090" d="M22 11c0 6.077-4.923 11-11 11S0 17.077 0 11 4.923 0 11 0s11 4.923 11 11"/><path fill="#fff" d="M20 4.685A11.2 11.2 0 0 0 17.314 2l-3.777 3.777V.308A11 11 0 0 0 11 0c-.877 0-1.723.115-2.538.308v5.47L4.685 2A11.2 11.2 0 0 0 2 4.685l3.777 3.777H.308A11 11 0 0 0 0 11c0 .877.115 1.723.308 2.539h5.47L2 17.315A11.2 11.2 0 0 0 4.685 20l3.777-3.777v5.47c.815.193 1.661.308 2.538.308s1.723-.115 2.539-.308v-5.47L17.315 20A11.2 11.2 0 0 0 20 17.315l-3.777-3.777h5.47c.193-.815.308-1.661.308-2.538s-.115-1.723-.308-2.538h-5.47z"/><path fill="#6A8090" d="M12.692 9.308h9.167c.084.555.141 1.115.141 1.692s-.057 1.137-.141 1.692h-9.167v9.167c-.555.084-1.115.141-1.692.141s-1.137-.057-1.692-.141v-9.167H.14A11 11 0 0 1 0 11c0-.577.057-1.137.141-1.692h9.167V.14A11 11 0 0 1 11 0c.577 0 1.137.057 1.692.141zm6.183 9.365c.26-.27.512-.556.745-.855l-4.28-4.28h-1.599zm-.202-15.548c-.27-.26-.556-.512-.855-.745l-4.28 4.279v1.6zm-15.548.202c-.26.27-.512.556-.745.855l4.279 4.28h1.6zm.202 15.548c.27.26.556.512.855.745l4.28-4.28v-1.599z"/><path fill="#fff" d="M11 .212C16.95.212 21.789 5.05 21.789 11S16.949 21.789 11 21.789C5.05 21.789.212 16.949.212 11 .212 5.05 5.05.212 11 .212M11 0C4.923 0 0 4.923 0 11s4.923 11 11 11 11-4.923 11-11S17.077 0 11 0"/></svg>